Grey's Anatomy 907.... Enjoy, I am taking requests so let me know if there is anything you'd like,I can be your source for everything


Format                                   : AVI
Format/Info                              : Audio Video Interleave
Format profile                           : OpenDML
File size                                : 1.13 GiB
Duration                                 : 42mn 28s
Overall bit rate mode                    : Variable
Overall bit rate                         : 3 824 Kbps
Writing application                      : MEncoder r33883
Writing library                          : MPlayer

Video
Codec ID                                 : XVID
Codec ID/Hint                            : XviD
Duration                                 : 42mn 28s
Source duration                          : 42mn 28s
Bit rate                                 : 3 503 Kbps
Width                                    : 1 280 pixels
Height                                   : 720 pixels
Display aspect ratio                     : 16:9
Frame rate                               : 24.000 fps
Color space                              : YUV
Chroma subsampling                       : 4:2:0
Bit depth                                : 8 bits
Scan type                                : Progressive
Compression mode                         : Lossy
Bits/(Pixel*Frame)                       : 0.158
Stream size                              : 1.04 GiB (92%)
Writing library                          : XviD 63

Audio
ID                                       : 1
Format                                   : MPEG Audio
Format version                           : Version 1
Format profile                           : Layer 3
Mode                                     : Joint stereo
Codec ID                                 : 55
Codec ID/Hint                            : MP3
Duration                                 : 42mn 27s
Bit rate mode                            : Variable
Bit rate                                 : 306 Kbps
Channel(s)                               : 2 channels
Sampling rate                            : 48.0 KHz
Compression mode                         : Lossy
Stream size                              : 92.9 MiB (8%)
Alignment                                : Aligned on interleaves
Interleave, duration                     : 24 ms (0.58 video frame)
Interleave, preload duration             : 67 ms
Writing library                          : LAME3.98.4
